<svg xmlns="http://www.w3.org/2000/svg" viewBox="52 96 452 184" role="img" aria-labelledby="title desc">
  <title id="title">Loupe</title>
  <desc id="desc">Loupe logo</desc>
  <path d="M80.415779,146.448868
  C71.730598,159.286118 71.913239,171.568710 81.354355,182.992920
  C86.011429,188.628204 82.045731,193.945496 82.456650,200.386292
  C73.116425,195.254272 67.121796,188.315750 63.864403,179.428574
  C53.477222,151.089218 73.408928,122.790794 103.661247,122.677803
  C128.973755,122.583260 154.286880,122.653221 179.599731,122.650383
  C181.551575,122.650169 183.503418,122.650352 186.762604,122.650352
  C183.544434,119.267723 181.172668,116.830498 178.863693,114.335167
  C175.051468,110.215279 174.640289,106.743202 177.556168,103.840134
  C180.619812,100.789955 183.934357,101.081482 187.921692,105.001122
  C194.096695,111.071297 200.235077,117.181656 206.267075,123.393349
  C210.533051,127.786438 210.431000,130.447006 206.051132,134.867966
  C199.956696,141.019577 193.779999,147.089630 187.674850,153.230698
  C184.808502,156.113907 181.746994,157.726715 178.056488,154.754745
  C174.913574,152.223755 174.873245,148.584976 178.096100,144.672333
  C180.500458,141.753403 183.228516,139.101105 185.864365,136.274368
  C184.302902,134.834488 182.733154,135.401794 181.328918,135.399551
  C156.349197,135.359695 131.369095,135.299164 106.389763,135.405853
  C96.403908,135.448502 87.236046,137.827118 80.415779,146.448868
  z" fill="#18314a" />
  <path d="M93.702499,198.130798
  C95.312027,163.145493 131.961700,142.065460 162.811951,160.234619
  C175.566391,167.746292 182.727295,179.302322 184.395432,194.293015
  C187.228333,219.751144 169.398163,239.501587 148.776016,243.655914
  C138.376312,245.750931 128.264633,244.658600 118.689369,239.818863
  C117.224037,239.078232 115.749191,238.356400 113.852058,237.413910
  C106.877029,246.055069 100.003838,254.565643 93.136497,263.080902
  C91.465919,265.152405 89.873383,267.289764 88.142349,269.308868
  C84.302116,273.788177 79.337685,275.351105 73.741341,273.882935
  C68.469627,272.499908 65.291275,268.817291 64.256775,263.374268
  C63.172443,257.669037 65.444687,253.248825 69.696648,249.779984
  C78.597870,242.518158 87.526581,235.283783 96.626434,228.274979
  C99.878777,225.770004 101.175140,223.727371 98.723930,219.686356
  C94.849602,213.299225 93.496826,206.076111 93.702499,198.130798
  M117.635521,175.121597
  C101.979256,188.799164 104.095207,213.413193 119.828331,225.096069
  C133.833496,235.495819 152.743011,233.312485 164.620468,219.589554
  C174.986404,207.612961 173.839233,187.566116 162.119522,175.885422
  C150.416412,164.221283 130.697617,163.663239 117.635521,175.121597
  z" fill="#18314a" />
  <path d="M194.711227,209.865845
  C195.189117,207.178085 195.626083,204.909119 196.166122,202.104950
  C201.296341,203.979767 203.942245,208.105881 206.410355,211.995163
  C215.183945,225.820740 215.627838,240.363556 207.894424,254.596390
  C200.432343,268.329865 188.274872,275.809448 172.602859,276.189819
  C153.970993,276.642029 135.319611,276.322968 116.676857,276.271881
  C111.533104,276.257812 108.773933,273.975586 108.732628,270.032715
  C108.689995,265.963348 111.212189,263.302216 116.291420,263.211792
  C129.603485,262.974792 142.921600,263.083984 156.237289,263.044098
  C161.895782,263.027130 167.574265,263.278625 173.209137,262.897705
  C194.781158,261.439392 206.924927,238.774673 196.049561,220.112289
  C194.106888,216.778625 193.401978,213.807678 194.711227,209.865845
  z" fill="#18314a" />
  <path d="M160.018829,193.524551
  C163.726074,196.097321 164.558716,199.288727 162.641052,202.788101
  C161.064423,205.665115 158.041946,205.868683 155.194061,205.144470
  C152.056152,204.346512 150.738922,201.897949 150.773422,198.795853
  C150.821518,194.474289 154.256226,192.403793 160.018829,193.524551
  z" fill="#18314a" />
  <path d="M135.813202,204.575806
  C132.370819,201.895523 131.663132,198.826340 133.863068,195.587372
  C135.737473,192.827652 138.646393,191.780945 141.756866,193.394409
  C144.898483,195.024048 146.374771,197.855011 145.199570,201.361801
  C143.649033,205.988602 140.000641,205.793228 135.813202,204.575806
  z" fill="#18314a" />
  <path d="M116.472771,203.558167
  C113.984703,200.083527 113.944397,197.013565 116.932442,194.356522
  C119.133163,192.399582 121.700897,192.065170 124.279510,193.686066
  C127.206573,195.525955 128.053360,198.260117 127.095482,201.474182
  C125.887482,205.527466 121.995964,206.380997 116.472771,203.558167
  z" fill="#18314a" />
  <path d="M287.196716,201.005554
  C287.188995,204.830704 287.146637,208.161194 287.183014,211.490814
  C287.218445,214.733566 285.909821,216.390778 282.429016,216.363922
  C270.607574,216.272659 258.784485,216.263443 246.963165,216.361877
  C243.556824,216.390228 242.164169,215.052551 242.201492,211.635651
  C242.363327,196.822510 242.486832,182.007782 242.435822,167.194275
  C242.422104,163.211182 243.678894,161.510147 247.914001,161.610916
  C261.980103,161.945572 260.207184,159.987167 260.317108,173.730133
  C260.379700,181.555527 260.455231,189.385696 260.245209,197.206207
  C260.148041,200.824127 261.650269,201.740128 264.984863,201.746307
  C268.323456,201.752472 269.876404,200.829605 269.732788,197.216797
  C269.241058,184.849777 270.591949,186.765305 280.315552,186.674103
  C286.576569,186.615372 287.137512,187.257034 287.193237,193.517105
  C287.213959,195.848068 287.196503,198.179382 287.196716,201.005554
  z" fill="#18314a" />
  <path d="M293.692596,181.073807
  C292.527649,162.044342 304.018158,160.623306 318.454407,160.348877
  C323.352203,160.255768 328.372742,160.644974 333.097565,162.779755
  C338.394623,165.173050 341.207916,169.087799 341.289978,174.767883
  C341.429321,184.414673 341.424591,194.066452 341.282440,203.713242
  C341.200073,209.303604 337.977875,213.567230 332.740356,215.356476
  C323.851166,218.393250 314.739899,218.439301 305.707581,216.409241
  C297.447388,214.552750 294.006378,210.044769 293.767029,201.523743
  C293.580231,194.874222 293.706085,188.215927 293.692596,181.073807
  M311.942657,182.740601
  C311.864380,187.205307 311.961029,191.682007 311.656586,196.131226
  C311.375305,200.241669 313.187561,201.894501 317.104980,201.936722
  C320.807220,201.976639 323.756714,201.357513 323.662781,196.654526
  C323.566956,191.857956 323.537201,187.054596 323.683289,182.260437
  C323.797791,178.503815 322.679413,176.308609 318.452606,176.178574
  C314.324097,176.051544 311.543518,176.957184 311.942657,182.740601
  z" fill="#18314a" />
  <path d="M349.699585,174.032120
  C349.710205,160.324371 348.717316,161.704956 361.456268,161.684799
  C367.555542,161.675156 368.174744,162.332306 368.201935,168.696640
  C368.240295,177.686584 368.315948,186.678986 368.145081,195.665970
  C368.069855,199.621933 368.867249,201.961487 373.571930,201.868423
  C378.164642,201.777573 379.737549,199.742538 379.683899,195.418579
  C379.566193,185.930527 379.770966,176.437912 379.606812,166.951279
  C379.541718,163.190186 380.673798,161.536865 384.706757,161.612213
  C399.105530,161.881165 397.197205,160.102783 397.305573,174.073288
  C397.376587,183.229279 397.372986,192.387131 397.274292,201.542770
  C397.188293,209.521942 393.833832,214.206284 386.278625,216.172729
  C378.297516,218.250000 370.093170,218.318161 362.074280,216.520554
  C353.085205,214.505463 349.820099,210.134476 349.722565,200.997604
  C349.628418,192.174942 349.700653,183.350510 349.699585,174.032120
  z" fill="#18314a" />
  <path d="M446.980408,166.060257
  C453.024597,175.276978 451.440918,184.762527 448.918610,194.133636
  C448.203339,196.791046 445.635071,198.697372 442.815613,199.652832
  C440.142059,200.558838 437.435089,201.261963 434.561646,201.331589
  C424.689026,201.570740 424.582153,201.603912 424.361755,211.249374
  C424.281464,214.764587 423.139313,216.469849 419.415405,216.364182
  C405.603912,215.972336 406.049103,218.881592 406.098145,203.534470
  C406.134827,192.061935 406.090179,180.589157 406.122040,169.116592
  C406.141449,162.118225 406.597076,161.673782 413.345978,161.664490
  C420.661865,161.654419 427.977753,161.669342 435.293640,161.666672
  C439.598999,161.665100 443.503510,162.762115 446.980408,166.060257
  M430.755707,186.534988
  C434.092316,185.050278 433.936218,182.192184 433.330536,179.384537
  C432.849945,177.156677 431.110077,176.211090 428.851959,176.369034
  C427.291534,176.478165 425.498962,175.878082 424.553925,177.893021
  C422.401001,182.483337 424.922028,186.593628 430.755707,186.534988
  z" fill="#18314a" />
  <path d="M495.611938,161.750061
  C498.973267,163.834503 500.360474,169.635468 498.965057,173.745392
  C497.743469,177.343323 494.680023,176.213135 492.201691,176.302368
  C488.212616,176.445999 484.213623,176.289368 480.220642,176.360397
  C478.149841,176.397232 475.452118,175.850998 475.489624,179.196945
  C475.524902,182.346924 478.124786,181.534103 479.967926,181.634796
  C481.959229,181.743637 483.960938,181.655121 485.958038,181.665527
  C492.430603,181.699234 493.191589,182.441284 493.221771,188.726181
  C493.250732,194.755219 491.938660,196.134811 486.023041,196.224823
  C483.693604,196.260269 481.363190,196.234192 479.033203,196.229675
  C477.038422,196.225815 475.302094,196.506958 475.420288,199.145889
  C475.525848,201.502731 477.168610,201.655807 478.930084,201.658356
  C483.756470,201.665344 488.590637,201.836929 493.406982,201.618729
  C497.817078,201.418945 499.470764,203.462143 499.242462,207.600250
  C499.160034,209.094254 499.201813,210.594971 499.180817,212.092529
  C499.141174,214.919464 497.816284,216.356247 494.877380,216.344284
  C483.893402,216.299652 472.908997,216.285614 461.925110,216.334091
  C458.948273,216.347229 457.713074,214.948196 457.715820,212.081223
  C457.730469,196.769989 457.751984,181.458542 457.682770,166.147568
  C457.666626,162.577301 459.490784,161.616760 462.697815,161.644287
  C473.514771,161.737167 484.332855,161.697235 495.611938,161.750061
  z" fill="#18314a" />
</svg>
